<mxfile host="app.diagrams.net" agent="Mozilla/5.0 (Windows NT 10.0; Win64; x64) AppleWebKit/537.36 (KHTML, like Gecko) Chrome/139.0.0.0 Safari/537.36" version="28.1.0">
  <diagram name="block_diagram" id="_Msjr5LW88oU5fZ5mQva">
    <mxGraphModel grid="1" page="1" gridSize="10" guides="1" tooltips="1" connect="1" arrows="1" fold="1" pageScale="1" pageWidth="850" pageHeight="1100" math="0" shadow="0">
      <root>
        <mxCell id="0" />
        <mxCell id="1" parent="0" />
        <mxCell id="CXZkLEBUZA9dPUU62RzO-1" value="VOTING MACHINE" style="rounded=1;whiteSpace=wrap;html=1;verticalLabelPosition=top;verticalAlign=bottom;" vertex="1" parent="1">
          <mxGeometry x="100" y="30" width="640" height="440" as="geometry" />
        </mxCell>
        <mxCell id="CXZkLEBUZA9dPUU62RzO-2" value="-HOLD_TIME counter&lt;div&gt;-one-press latch&lt;/div&gt;&lt;div&gt;-outputs: press_A&lt;/div&gt;" style="rounded=0;whiteSpace=wrap;html=1;align=left;" vertex="1" parent="1">
          <mxGeometry x="150" y="90" width="120" height="60" as="geometry" />
        </mxCell>
        <mxCell id="CXZkLEBUZA9dPUU62RzO-3" value="Input Conditioning(A)" style="text;strokeColor=none;align=center;fillColor=none;html=1;verticalAlign=middle;whiteSpace=wrap;rounded=0;" vertex="1" parent="1">
          <mxGeometry x="145" y="60" width="130" height="30" as="geometry" />
        </mxCell>
        <mxCell id="CXZkLEBUZA9dPUU62RzO-4" value="-HOLD_TIME counter&lt;div&gt;-one-press latch&lt;/div&gt;&lt;div&gt;-outputs: press_B&lt;/div&gt;" style="rounded=0;whiteSpace=wrap;html=1;align=left;" vertex="1" parent="1">
          <mxGeometry x="155" y="190" width="120" height="60" as="geometry" />
        </mxCell>
        <mxCell id="CXZkLEBUZA9dPUU62RzO-5" value="Input Conditioning(C)" style="text;strokeColor=none;align=center;fillColor=none;html=1;verticalAlign=middle;whiteSpace=wrap;rounded=0;" vertex="1" parent="1">
          <mxGeometry x="150" y="260" width="130" height="30" as="geometry" />
        </mxCell>
        <mxCell id="CXZkLEBUZA9dPUU62RzO-6" value="Input Conditioning(B)" style="text;strokeColor=none;align=center;fillColor=none;html=1;verticalAlign=middle;whiteSpace=wrap;rounded=0;" vertex="1" parent="1">
          <mxGeometry x="150" y="160" width="130" height="30" as="geometry" />
        </mxCell>
        <mxCell id="CXZkLEBUZA9dPUU62RzO-10" value="-HOLD_TIME counter&lt;div&gt;-one-press latch&lt;/div&gt;&lt;div&gt;-outputs: press_C&lt;/div&gt;" style="rounded=0;whiteSpace=wrap;html=1;align=left;" vertex="1" parent="1">
          <mxGeometry x="150" y="290" width="125" height="60" as="geometry" />
        </mxCell>
        <mxCell id="CXZkLEBUZA9dPUU62RzO-47" style="edgeStyle=orthogonalEdgeStyle;rounded=0;orthogonalLoop=1;jettySize=auto;html=1;entryX=0;entryY=0.5;entryDx=0;entryDy=0;" edge="1" parent="1" target="CXZkLEBUZA9dPUU62RzO-13">
          <mxGeometry relative="1" as="geometry">
            <mxPoint x="560" y="170" as="sourcePoint" />
          </mxGeometry>
        </mxCell>
        <mxCell id="CXZkLEBUZA9dPUU62RzO-48" style="edgeStyle=orthogonalEdgeStyle;rounded=0;orthogonalLoop=1;jettySize=auto;html=1;entryX=0;entryY=0.25;entryDx=0;entryDy=0;" edge="1" parent="1" source="CXZkLEBUZA9dPUU62RzO-11" target="CXZkLEBUZA9dPUU62RzO-13">
          <mxGeometry relative="1" as="geometry">
            <Array as="points">
              <mxPoint x="500" y="118" />
            </Array>
          </mxGeometry>
        </mxCell>
        <mxCell id="CXZkLEBUZA9dPUU62RzO-49" style="edgeStyle=orthogonalEdgeStyle;rounded=0;orthogonalLoop=1;jettySize=auto;html=1;entryX=0;entryY=0.75;entryDx=0;entryDy=0;" edge="1" parent="1" source="CXZkLEBUZA9dPUU62RzO-11" target="CXZkLEBUZA9dPUU62RzO-13">
          <mxGeometry relative="1" as="geometry">
            <Array as="points">
              <mxPoint x="520" y="250" />
              <mxPoint x="520" y="153" />
            </Array>
          </mxGeometry>
        </mxCell>
        <mxCell id="CXZkLEBUZA9dPUU62RzO-64" style="edgeStyle=orthogonalEdgeStyle;rounded=0;orthogonalLoop=1;jettySize=auto;html=1;entryX=0;entryY=1;entryDx=0;entryDy=0;" edge="1" parent="1" source="CXZkLEBUZA9dPUU62RzO-11" target="CXZkLEBUZA9dPUU62RzO-13">
          <mxGeometry relative="1" as="geometry">
            <Array as="points">
              <mxPoint x="550" y="250" />
              <mxPoint x="550" y="170" />
            </Array>
          </mxGeometry>
        </mxCell>
        <mxCell id="CXZkLEBUZA9dPUU62RzO-11" value="blocks if &amp;gt;1 pressed&lt;div&gt;multiple_votes= (A&amp;amp;B)|(A&amp;amp;C)|(B&amp;amp;C)&lt;/div&gt;" style="rhombus;whiteSpace=wrap;html=1;" vertex="1" parent="1">
          <mxGeometry x="365" y="190" width="150" height="120" as="geometry" />
        </mxCell>
        <mxCell id="CXZkLEBUZA9dPUU62RzO-12" value="Multi-Press Detector" style="text;strokeColor=none;align=center;fillColor=none;html=1;verticalAlign=middle;whiteSpace=wrap;rounded=0;" vertex="1" parent="1">
          <mxGeometry x="390" y="310" width="160" height="30" as="geometry" />
        </mxCell>
        <mxCell id="CXZkLEBUZA9dPUU62RzO-67" style="edgeStyle=orthogonalEdgeStyle;rounded=0;orthogonalLoop=1;jettySize=auto;html=1;entryX=1;entryY=0.25;entryDx=0;entryDy=0;" edge="1" parent="1" source="CXZkLEBUZA9dPUU62RzO-13" target="CXZkLEBUZA9dPUU62RzO-15">
          <mxGeometry relative="1" as="geometry">
            <Array as="points">
              <mxPoint x="690" y="200" />
              <mxPoint x="720" y="200" />
              <mxPoint x="720" y="245" />
            </Array>
          </mxGeometry>
        </mxCell>
        <mxCell id="CXZkLEBUZA9dPUU62RzO-78" style="edgeStyle=orthogonalEdgeStyle;rounded=0;orthogonalLoop=1;jettySize=auto;html=1;entryX=0;entryY=0.5;entryDx=0;entryDy=0;" edge="1" parent="1" source="CXZkLEBUZA9dPUU62RzO-13" target="CXZkLEBUZA9dPUU62RzO-17">
          <mxGeometry relative="1" as="geometry">
            <Array as="points">
              <mxPoint x="610" y="180" />
              <mxPoint x="558" y="180" />
              <mxPoint x="558" y="380" />
            </Array>
          </mxGeometry>
        </mxCell>
        <mxCell id="CXZkLEBUZA9dPUU62RzO-13" value="count_A/B/C[3:0]&lt;div&gt;gated by valid_press_X&lt;/div&gt;" style="rounded=0;whiteSpace=wrap;html=1;" vertex="1" parent="1">
          <mxGeometry x="570" y="100" width="130" height="70" as="geometry" />
        </mxCell>
        <mxCell id="CXZkLEBUZA9dPUU62RzO-14" value="Vote Control &amp;amp; Counters" style="text;strokeColor=none;align=center;fillColor=none;html=1;verticalAlign=middle;whiteSpace=wrap;rounded=0;" vertex="1" parent="1">
          <mxGeometry x="560" y="70" width="150" height="30" as="geometry" />
        </mxCell>
        <mxCell id="CXZkLEBUZA9dPUU62RzO-16" value="LED Blink Timers" style="text;strokeColor=none;align=center;fillColor=none;html=1;verticalAlign=middle;whiteSpace=wrap;rounded=0;" vertex="1" parent="1">
          <mxGeometry x="570" y="285" width="140" height="30" as="geometry" />
        </mxCell>
        <mxCell id="CXZkLEBUZA9dPUU62RzO-17" value="compares count_A/B/C&lt;div&gt;winner[1:0]&lt;/div&gt;" style="rounded=0;whiteSpace=wrap;html=1;" vertex="1" parent="1">
          <mxGeometry x="577.5" y="350" width="130" height="60" as="geometry" />
        </mxCell>
        <mxCell id="CXZkLEBUZA9dPUU62RzO-18" value="Winner/Tie Comparator" style="text;strokeColor=none;align=center;fillColor=none;html=1;verticalAlign=middle;whiteSpace=wrap;rounded=0;" vertex="1" parent="1">
          <mxGeometry x="565" y="320" width="150" height="30" as="geometry" />
        </mxCell>
        <mxCell id="CXZkLEBUZA9dPUU62RzO-19" value="vote_A" style="strokeWidth=2;html=1;shape=mxgraph.flowchart.terminator;whiteSpace=wrap;" vertex="1" parent="1">
          <mxGeometry x="-70" y="90" width="70" height="40" as="geometry" />
        </mxCell>
        <mxCell id="CXZkLEBUZA9dPUU62RzO-82" style="edgeStyle=orthogonalEdgeStyle;rounded=0;orthogonalLoop=1;jettySize=auto;html=1;entryX=0.074;entryY=1.074;entryDx=0;entryDy=0;entryPerimeter=0;" edge="1" parent="1" source="CXZkLEBUZA9dPUU62RzO-20" target="CXZkLEBUZA9dPUU62RzO-15">
          <mxGeometry relative="1" as="geometry">
            <mxPoint x="540" y="340" as="targetPoint" />
            <Array as="points">
              <mxPoint x="-35" y="380" />
              <mxPoint x="530" y="380" />
              <mxPoint x="530" y="294" />
            </Array>
          </mxGeometry>
        </mxCell>
        <mxCell id="CXZkLEBUZA9dPUU62RzO-88" style="edgeStyle=orthogonalEdgeStyle;rounded=0;orthogonalLoop=1;jettySize=auto;html=1;entryX=0;entryY=0.75;entryDx=0;entryDy=0;" edge="1" parent="1" source="CXZkLEBUZA9dPUU62RzO-20" target="CXZkLEBUZA9dPUU62RzO-10">
          <mxGeometry relative="1" as="geometry">
            <Array as="points">
              <mxPoint x="40" y="335" />
              <mxPoint x="40" y="335" />
            </Array>
          </mxGeometry>
        </mxCell>
        <mxCell id="CXZkLEBUZA9dPUU62RzO-90" style="edgeStyle=orthogonalEdgeStyle;rounded=0;orthogonalLoop=1;jettySize=auto;html=1;entryX=0.25;entryY=1;entryDx=0;entryDy=0;" edge="1" parent="1" source="CXZkLEBUZA9dPUU62RzO-20" target="CXZkLEBUZA9dPUU62RzO-2">
          <mxGeometry relative="1" as="geometry">
            <Array as="points">
              <mxPoint x="110" y="320" />
              <mxPoint x="110" y="150" />
            </Array>
          </mxGeometry>
        </mxCell>
        <mxCell id="CXZkLEBUZA9dPUU62RzO-20" value="reset" style="strokeWidth=2;html=1;shape=mxgraph.flowchart.terminator;whiteSpace=wrap;" vertex="1" parent="1">
          <mxGeometry x="-70" y="300" width="70" height="40" as="geometry" />
        </mxCell>
        <mxCell id="CXZkLEBUZA9dPUU62RzO-85" style="edgeStyle=orthogonalEdgeStyle;rounded=0;orthogonalLoop=1;jettySize=auto;html=1;entryX=0;entryY=0.25;entryDx=0;entryDy=0;" edge="1" parent="1" source="CXZkLEBUZA9dPUU62RzO-21" target="CXZkLEBUZA9dPUU62RzO-10">
          <mxGeometry relative="1" as="geometry" />
        </mxCell>
        <mxCell id="CXZkLEBUZA9dPUU62RzO-86" style="edgeStyle=orthogonalEdgeStyle;rounded=0;orthogonalLoop=1;jettySize=auto;html=1;entryX=0;entryY=0.75;entryDx=0;entryDy=0;" edge="1" parent="1" source="CXZkLEBUZA9dPUU62RzO-21" target="CXZkLEBUZA9dPUU62RzO-4">
          <mxGeometry relative="1" as="geometry" />
        </mxCell>
        <mxCell id="CXZkLEBUZA9dPUU62RzO-87" style="edgeStyle=orthogonalEdgeStyle;rounded=0;orthogonalLoop=1;jettySize=auto;html=1;entryX=0;entryY=0.75;entryDx=0;entryDy=0;" edge="1" parent="1" source="CXZkLEBUZA9dPUU62RzO-21" target="CXZkLEBUZA9dPUU62RzO-2">
          <mxGeometry relative="1" as="geometry" />
        </mxCell>
        <mxCell id="CXZkLEBUZA9dPUU62RzO-91" style="edgeStyle=orthogonalEdgeStyle;rounded=0;orthogonalLoop=1;jettySize=auto;html=1;entryX=0.5;entryY=1;entryDx=0;entryDy=0;" edge="1" parent="1" source="CXZkLEBUZA9dPUU62RzO-21" target="CXZkLEBUZA9dPUU62RzO-14">
          <mxGeometry relative="1" as="geometry">
            <Array as="points">
              <mxPoint x="-90" y="270" />
              <mxPoint x="-90" y="-20" />
              <mxPoint x="635" y="-20" />
            </Array>
          </mxGeometry>
        </mxCell>
        <mxCell id="CXZkLEBUZA9dPUU62RzO-21" value="clk" style="strokeWidth=2;html=1;shape=mxgraph.flowchart.terminator;whiteSpace=wrap;" vertex="1" parent="1">
          <mxGeometry x="-70" y="250" width="70" height="40" as="geometry" />
        </mxCell>
        <mxCell id="CXZkLEBUZA9dPUU62RzO-37" style="edgeStyle=orthogonalEdgeStyle;rounded=0;orthogonalLoop=1;jettySize=auto;html=1;exitX=1;exitY=0.5;exitDx=0;exitDy=0;exitPerimeter=0;entryX=0;entryY=0.5;entryDx=0;entryDy=0;" edge="1" parent="1" source="CXZkLEBUZA9dPUU62RzO-22" target="CXZkLEBUZA9dPUU62RzO-10">
          <mxGeometry relative="1" as="geometry">
            <Array as="points">
              <mxPoint x="40" y="223" />
              <mxPoint x="40" y="320" />
            </Array>
          </mxGeometry>
        </mxCell>
        <mxCell id="CXZkLEBUZA9dPUU62RzO-22" value="vote_C" style="strokeWidth=2;html=1;shape=mxgraph.flowchart.terminator;whiteSpace=wrap;" vertex="1" parent="1">
          <mxGeometry x="-70" y="205" width="70" height="35" as="geometry" />
        </mxCell>
        <mxCell id="CXZkLEBUZA9dPUU62RzO-23" value="vote_B" style="strokeWidth=2;html=1;shape=mxgraph.flowchart.terminator;whiteSpace=wrap;" vertex="1" parent="1">
          <mxGeometry x="-70" y="150" width="70" height="40" as="geometry" />
        </mxCell>
        <mxCell id="CXZkLEBUZA9dPUU62RzO-25" value="count_A[3:0]" style="strokeWidth=2;html=1;shape=mxgraph.flowchart.terminator;whiteSpace=wrap;" vertex="1" parent="1">
          <mxGeometry x="800" y="80" width="70" height="40" as="geometry" />
        </mxCell>
        <mxCell id="CXZkLEBUZA9dPUU62RzO-26" value="led_C" style="strokeWidth=2;html=1;shape=mxgraph.flowchart.terminator;whiteSpace=wrap;" vertex="1" parent="1">
          <mxGeometry x="800" y="380" width="70" height="40" as="geometry" />
        </mxCell>
        <mxCell id="CXZkLEBUZA9dPUU62RzO-27" value="led_B" style="strokeWidth=2;html=1;shape=mxgraph.flowchart.terminator;whiteSpace=wrap;" vertex="1" parent="1">
          <mxGeometry x="800" y="330" width="70" height="40" as="geometry" />
        </mxCell>
        <mxCell id="CXZkLEBUZA9dPUU62RzO-28" value="led_A" style="strokeWidth=2;html=1;shape=mxgraph.flowchart.terminator;whiteSpace=wrap;" vertex="1" parent="1">
          <mxGeometry x="800" y="280" width="70" height="40" as="geometry" />
        </mxCell>
        <mxCell id="CXZkLEBUZA9dPUU62RzO-29" value="winner[1:0]" style="strokeWidth=2;html=1;shape=mxgraph.flowchart.terminator;whiteSpace=wrap;" vertex="1" parent="1">
          <mxGeometry x="800" y="230" width="70" height="40" as="geometry" />
        </mxCell>
        <mxCell id="CXZkLEBUZA9dPUU62RzO-31" value="count_C[3:0]" style="strokeWidth=2;html=1;shape=mxgraph.flowchart.terminator;whiteSpace=wrap;" vertex="1" parent="1">
          <mxGeometry x="800" y="180" width="70" height="40" as="geometry" />
        </mxCell>
        <mxCell id="CXZkLEBUZA9dPUU62RzO-32" value="count_B[3:0]" style="strokeWidth=2;html=1;shape=mxgraph.flowchart.terminator;whiteSpace=wrap;" vertex="1" parent="1">
          <mxGeometry x="800" y="130" width="70" height="40" as="geometry" />
        </mxCell>
        <mxCell id="CXZkLEBUZA9dPUU62RzO-34" value="" style="edgeStyle=elbowEdgeStyle;elbow=horizontal;endArrow=classic;html=1;curved=0;rounded=0;endSize=8;startSize=8;entryX=0;entryY=0.5;entryDx=0;entryDy=0;" edge="1" parent="1" target="CXZkLEBUZA9dPUU62RzO-2">
          <mxGeometry width="50" height="50" relative="1" as="geometry">
            <mxPoint y="110" as="sourcePoint" />
            <mxPoint x="50" y="60" as="targetPoint" />
            <Array as="points">
              <mxPoint x="50" y="110" />
            </Array>
          </mxGeometry>
        </mxCell>
        <mxCell id="CXZkLEBUZA9dPUU62RzO-35" value="" style="edgeStyle=elbowEdgeStyle;elbow=horizontal;endArrow=classic;html=1;curved=0;rounded=0;endSize=8;startSize=8;entryX=0;entryY=0.5;entryDx=0;entryDy=0;exitX=1;exitY=0.5;exitDx=0;exitDy=0;exitPerimeter=0;" edge="1" parent="1" source="CXZkLEBUZA9dPUU62RzO-23" target="CXZkLEBUZA9dPUU62RzO-4">
          <mxGeometry width="50" height="50" relative="1" as="geometry">
            <mxPoint x="10" y="170" as="sourcePoint" />
            <mxPoint x="160" y="180" as="targetPoint" />
            <Array as="points">
              <mxPoint x="50" y="190" />
            </Array>
          </mxGeometry>
        </mxCell>
        <mxCell id="CXZkLEBUZA9dPUU62RzO-41" style="edgeStyle=orthogonalEdgeStyle;rounded=0;orthogonalLoop=1;jettySize=auto;html=1;entryX=0.109;entryY=0.333;entryDx=0;entryDy=0;entryPerimeter=0;" edge="1" parent="1" source="CXZkLEBUZA9dPUU62RzO-2" target="CXZkLEBUZA9dPUU62RzO-11">
          <mxGeometry relative="1" as="geometry" />
        </mxCell>
        <mxCell id="CXZkLEBUZA9dPUU62RzO-42" value="press_A&lt;div&gt;&lt;br&gt;&lt;/div&gt;" style="text;strokeColor=none;align=center;fillColor=none;html=1;verticalAlign=middle;whiteSpace=wrap;rounded=0;" vertex="1" parent="1">
          <mxGeometry x="290" y="90" width="60" height="30" as="geometry" />
        </mxCell>
        <mxCell id="CXZkLEBUZA9dPUU62RzO-43" style="edgeStyle=orthogonalEdgeStyle;rounded=0;orthogonalLoop=1;jettySize=auto;html=1;entryX=0;entryY=0.5;entryDx=0;entryDy=0;" edge="1" parent="1" source="CXZkLEBUZA9dPUU62RzO-4" target="CXZkLEBUZA9dPUU62RzO-11">
          <mxGeometry relative="1" as="geometry">
            <mxPoint x="340" y="230" as="targetPoint" />
          </mxGeometry>
        </mxCell>
        <mxCell id="CXZkLEBUZA9dPUU62RzO-44" value="press_B" style="text;strokeColor=none;align=center;fillColor=none;html=1;verticalAlign=middle;whiteSpace=wrap;rounded=0;" vertex="1" parent="1">
          <mxGeometry x="280" y="185" width="60" height="30" as="geometry" />
        </mxCell>
        <mxCell id="CXZkLEBUZA9dPUU62RzO-45" style="edgeStyle=orthogonalEdgeStyle;rounded=0;orthogonalLoop=1;jettySize=auto;html=1;entryX=0.407;entryY=0.867;entryDx=0;entryDy=0;entryPerimeter=0;" edge="1" parent="1" source="CXZkLEBUZA9dPUU62RzO-10" target="CXZkLEBUZA9dPUU62RzO-11">
          <mxGeometry relative="1" as="geometry">
            <Array as="points">
              <mxPoint x="213" y="360" />
              <mxPoint x="320" y="360" />
              <mxPoint x="320" y="294" />
            </Array>
          </mxGeometry>
        </mxCell>
        <mxCell id="CXZkLEBUZA9dPUU62RzO-46" value="press_C" style="text;strokeColor=none;align=center;fillColor=none;html=1;verticalAlign=middle;whiteSpace=wrap;rounded=0;" vertex="1" parent="1">
          <mxGeometry x="340" y="300" width="60" height="30" as="geometry" />
        </mxCell>
        <mxCell id="CXZkLEBUZA9dPUU62RzO-53" value="valid_A" style="text;strokeColor=none;align=center;fillColor=none;html=1;verticalAlign=middle;whiteSpace=wrap;rounded=0;" vertex="1" parent="1">
          <mxGeometry x="532.5" y="255" width="5" height="30" as="geometry" />
        </mxCell>
        <mxCell id="CXZkLEBUZA9dPUU62RzO-54" value="valid_B" style="text;strokeColor=none;align=center;fillColor=none;html=1;verticalAlign=middle;whiteSpace=wrap;rounded=0;" vertex="1" parent="1">
          <mxGeometry x="505" y="85" width="60" height="30" as="geometry" />
        </mxCell>
        <mxCell id="CXZkLEBUZA9dPUU62RzO-55" value="valid_C" style="text;strokeColor=none;align=center;fillColor=none;html=1;verticalAlign=middle;whiteSpace=wrap;rounded=0;" vertex="1" parent="1">
          <mxGeometry x="515" y="120" width="60" height="30" as="geometry" />
        </mxCell>
        <mxCell id="CXZkLEBUZA9dPUU62RzO-56" style="edgeStyle=orthogonalEdgeStyle;rounded=0;orthogonalLoop=1;jettySize=auto;html=1;entryX=0;entryY=0.5;entryDx=0;entryDy=0;entryPerimeter=0;" edge="1" parent="1" source="CXZkLEBUZA9dPUU62RzO-13" target="CXZkLEBUZA9dPUU62RzO-25">
          <mxGeometry relative="1" as="geometry">
            <Array as="points">
              <mxPoint x="750" y="135" />
              <mxPoint x="750" y="100" />
            </Array>
          </mxGeometry>
        </mxCell>
        <mxCell id="CXZkLEBUZA9dPUU62RzO-57" style="edgeStyle=orthogonalEdgeStyle;rounded=0;orthogonalLoop=1;jettySize=auto;html=1;entryX=0;entryY=0.5;entryDx=0;entryDy=0;entryPerimeter=0;" edge="1" parent="1" source="CXZkLEBUZA9dPUU62RzO-13" target="CXZkLEBUZA9dPUU62RzO-32">
          <mxGeometry relative="1" as="geometry">
            <Array as="points">
              <mxPoint x="730" y="150" />
              <mxPoint x="730" y="150" />
            </Array>
          </mxGeometry>
        </mxCell>
        <mxCell id="CXZkLEBUZA9dPUU62RzO-58" style="edgeStyle=orthogonalEdgeStyle;rounded=0;orthogonalLoop=1;jettySize=auto;html=1;entryX=0;entryY=0.5;entryDx=0;entryDy=0;entryPerimeter=0;" edge="1" parent="1" source="CXZkLEBUZA9dPUU62RzO-13" target="CXZkLEBUZA9dPUU62RzO-31">
          <mxGeometry relative="1" as="geometry">
            <Array as="points">
              <mxPoint x="750" y="170" />
              <mxPoint x="750" y="200" />
            </Array>
          </mxGeometry>
        </mxCell>
        <mxCell id="CXZkLEBUZA9dPUU62RzO-15" value="per-candidate down-counters&lt;div&gt;led_X=(ctr_X&amp;gt;0)&lt;/div&gt;" style="rounded=0;whiteSpace=wrap;html=1;" vertex="1" parent="1">
          <mxGeometry x="572.5" y="230" width="135" height="60" as="geometry" />
        </mxCell>
        <mxCell id="CXZkLEBUZA9dPUU62RzO-68" style="edgeStyle=orthogonalEdgeStyle;rounded=0;orthogonalLoop=1;jettySize=auto;html=1;" edge="1" parent="1" source="CXZkLEBUZA9dPUU62RzO-13">
          <mxGeometry relative="1" as="geometry">
            <mxPoint x="684" y="230" as="targetPoint" />
            <Array as="points">
              <mxPoint x="680" y="190" />
              <mxPoint x="684" y="190" />
            </Array>
          </mxGeometry>
        </mxCell>
        <mxCell id="CXZkLEBUZA9dPUU62RzO-69" style="edgeStyle=orthogonalEdgeStyle;rounded=0;orthogonalLoop=1;jettySize=auto;html=1;exitX=0.5;exitY=1;exitDx=0;exitDy=0;entryX=0.16;entryY=-0.008;entryDx=0;entryDy=0;entryPerimeter=0;" edge="1" parent="1" source="CXZkLEBUZA9dPUU62RzO-13" target="CXZkLEBUZA9dPUU62RzO-15">
          <mxGeometry relative="1" as="geometry" />
        </mxCell>
        <mxCell id="CXZkLEBUZA9dPUU62RzO-70" value="A" style="text;strokeColor=none;align=center;fillColor=none;html=1;verticalAlign=middle;whiteSpace=wrap;rounded=0;" vertex="1" parent="1">
          <mxGeometry x="680" y="200" width="60" height="30" as="geometry" />
        </mxCell>
        <mxCell id="CXZkLEBUZA9dPUU62RzO-71" value="C" style="text;strokeColor=none;align=center;fillColor=none;html=1;verticalAlign=middle;whiteSpace=wrap;rounded=0;" vertex="1" parent="1">
          <mxGeometry x="590" y="170" width="60" height="30" as="geometry" />
        </mxCell>
        <mxCell id="CXZkLEBUZA9dPUU62RzO-72" value="B" style="text;strokeColor=none;align=center;fillColor=none;html=1;verticalAlign=middle;whiteSpace=wrap;rounded=0;" vertex="1" parent="1">
          <mxGeometry x="640" y="190" width="60" height="30" as="geometry" />
        </mxCell>
        <mxCell id="CXZkLEBUZA9dPUU62RzO-74" style="edgeStyle=orthogonalEdgeStyle;rounded=0;orthogonalLoop=1;jettySize=auto;html=1;entryX=0;entryY=0.5;entryDx=0;entryDy=0;entryPerimeter=0;" edge="1" parent="1" source="CXZkLEBUZA9dPUU62RzO-15" target="CXZkLEBUZA9dPUU62RzO-28">
          <mxGeometry relative="1" as="geometry">
            <Array as="points">
              <mxPoint x="790" y="260" />
              <mxPoint x="790" y="300" />
            </Array>
          </mxGeometry>
        </mxCell>
        <mxCell id="CXZkLEBUZA9dPUU62RzO-76" style="edgeStyle=orthogonalEdgeStyle;rounded=0;orthogonalLoop=1;jettySize=auto;html=1;entryX=0;entryY=0.5;entryDx=0;entryDy=0;entryPerimeter=0;" edge="1" parent="1" source="CXZkLEBUZA9dPUU62RzO-15" target="CXZkLEBUZA9dPUU62RzO-27">
          <mxGeometry relative="1" as="geometry">
            <Array as="points">
              <mxPoint x="770" y="280" />
              <mxPoint x="770" y="350" />
            </Array>
          </mxGeometry>
        </mxCell>
        <mxCell id="CXZkLEBUZA9dPUU62RzO-77" style="edgeStyle=orthogonalEdgeStyle;rounded=0;orthogonalLoop=1;jettySize=auto;html=1;exitX=1;exitY=0.25;exitDx=0;exitDy=0;entryX=0;entryY=0.5;entryDx=0;entryDy=0;entryPerimeter=0;" edge="1" parent="1" source="CXZkLEBUZA9dPUU62RzO-16" target="CXZkLEBUZA9dPUU62RzO-26">
          <mxGeometry relative="1" as="geometry" />
        </mxCell>
        <mxCell id="CXZkLEBUZA9dPUU62RzO-79" style="edgeStyle=orthogonalEdgeStyle;rounded=0;orthogonalLoop=1;jettySize=auto;html=1;entryX=1;entryY=0.5;entryDx=0;entryDy=0;entryPerimeter=0;" edge="1" parent="1" source="CXZkLEBUZA9dPUU62RzO-17" target="CXZkLEBUZA9dPUU62RzO-29">
          <mxGeometry relative="1" as="geometry">
            <Array as="points">
              <mxPoint x="642" y="430" />
              <mxPoint x="910" y="430" />
              <mxPoint x="910" y="250" />
            </Array>
          </mxGeometry>
        </mxCell>
        <mxCell id="CXZkLEBUZA9dPUU62RzO-80" style="edgeStyle=orthogonalEdgeStyle;rounded=0;orthogonalLoop=1;jettySize=auto;html=1;entryX=0;entryY=0.75;entryDx=0;entryDy=0;" edge="1" parent="1" source="CXZkLEBUZA9dPUU62RzO-21" target="CXZkLEBUZA9dPUU62RzO-15">
          <mxGeometry relative="1" as="geometry">
            <Array as="points">
              <mxPoint x="10" y="270" />
              <mxPoint x="10" y="420" />
              <mxPoint x="540" y="420" />
              <mxPoint x="540" y="298" />
              <mxPoint x="566" y="298" />
              <mxPoint x="566" y="275" />
            </Array>
          </mxGeometry>
        </mxCell>
        <mxCell id="CXZkLEBUZA9dPUU62RzO-89" style="edgeStyle=orthogonalEdgeStyle;rounded=0;orthogonalLoop=1;jettySize=auto;html=1;entryX=0.092;entryY=0.936;entryDx=0;entryDy=0;entryPerimeter=0;" edge="1" parent="1" source="CXZkLEBUZA9dPUU62RzO-20" target="CXZkLEBUZA9dPUU62RzO-4">
          <mxGeometry relative="1" as="geometry">
            <Array as="points">
              <mxPoint x="120" y="320" />
              <mxPoint x="120" y="246" />
            </Array>
          </mxGeometry>
        </mxCell>
        <mxCell id="CXZkLEBUZA9dPUU62RzO-92" style="edgeStyle=orthogonalEdgeStyle;rounded=0;orthogonalLoop=1;jettySize=auto;html=1;entryX=0.332;entryY=0.887;entryDx=0;entryDy=0;entryPerimeter=0;" edge="1" parent="1" source="CXZkLEBUZA9dPUU62RzO-20" target="CXZkLEBUZA9dPUU62RzO-14">
          <mxGeometry relative="1" as="geometry">
            <Array as="points">
              <mxPoint x="-160" y="320" />
              <mxPoint x="-160" y="-80" />
              <mxPoint x="610" y="-80" />
            </Array>
          </mxGeometry>
        </mxCell>
      </root>
    </mxGraphModel>
  </diagram>
</mxfile>
